<?xml version="1.0" encoding="UTF-8" standalone="no"?>
<svg
   xmlns:dc="http://purl.org/dc/elements/1.1/"
   xmlns:cc="http://creativecommons.org/ns#"
   xmlns:rdf="http://www.w3.org/1999/02/22-rdf-syntax-ns#"
   xmlns:svg="http://www.w3.org/2000/svg"
   xmlns="http://www.w3.org/2000/svg"
   viewBox="0 0 106.66667 101.33427"
   height="101.33427"
   width="106.66667"
   xml:space="preserve"
   id="svg2"
   version="1.1"><metadata
     id="metadata8"><rdf:RDF><cc:Work
         rdf:about=""><dc:format>image/svg+xml</dc:format><dc:type
           rdf:resource="http://purl.org/dc/dcmitype/StillImage" /></cc:Work></rdf:RDF></metadata><defs
     id="defs6"><clipPath
       id="clipPath18"
       clipPathUnits="userSpaceOnUse"><path
         id="path16"
         d="M 0,76.001 H 80 V 0 H 0 Z" /></clipPath><clipPath
       id="clipPath30"
       clipPathUnits="userSpaceOnUse"><path
         id="path28"
         d="M 0,0 H 79.92 V 76 H 0 Z" /></clipPath></defs><g
     transform="matrix(1.3333333,0,0,-1.3333333,0,101.33427)"
     id="g10"><g
       id="g12"><g
         clip-path="url(#clipPath18)"
         id="g14"><g
           transform="translate(50.34,2.324)"
           id="g20"><path
             id="path22"
             style="fill:#231f20;fill-opacity:1;fill-rule:nonzero;stroke:none"
             d="m 0,0 c -1.387,1.02 -1.535,2.551 -1.535,2.551 l -0.52,3.324 h -16.57 l -0.524,-3.32 c 0,0 -0.144,-1.535 -1.531,-2.555 -1.387,-1.019 -2.48,-1.894 -1.387,-2.043 1.055,-0.14 10.993,-0.011 11.727,0 0.734,-0.011 10.672,-0.14 11.723,0 C 2.476,-1.894 1.383,-1.019 0,0" /></g></g></g><g
       id="g24"><g
         clip-path="url(#clipPath30)"
         id="g26"><g
           transform="translate(21.332,28.879)"
           id="g32"><path
             id="path34"
             style="fill:#fed205;fill-opacity:1;fill-rule:nonzero;stroke:none"
             d="M 0,0 C 4.43,0.035 4.98,1.102 6.422,5.543 9.082,12.559 21.07,3.707 13.641,0.637 6.215,-2.437 -4.426,-0.035 0,0" /></g><g
           transform="translate(60.887,71.242)"
           id="g36"><path
             id="path38"
             style="fill:#fed205;fill-opacity:1;fill-rule:nonzero;stroke:none"
             d="M 0,0 C 0,0 -0.332,0.387 -1.438,1.27 0.222,3.981 3.48,3.485 3.48,3.485 0.39,1.657 0,0 0,0 M 5.84,3.864 C 3.691,5.594 0.133,4.739 -2.11,1.957 l -22.711,-32.269 c -2.242,-2.781 -2.23,-2.25 -0.086,-3.981 2.149,-1.73 1.633,-1.855 3.875,0.93 L 5.672,-4.312 C 7.91,-1.527 7.988,2.133 5.84,3.864" /></g><g
           transform="translate(76.801,64.199)"
           id="g40"><path
             id="path42"
             style="fill:#231f20;fill-opacity:1;fill-rule:nonzero;stroke:none"
             d="m 0,0 h -9.989 l -4.41,-4.8 H -1.602 V -43.199 H -72 V -4.8 h 40.953 l 3.379,4.8 h -45.934 c -1.765,0 -3.199,-1.433 -3.199,-3.199 v -46.398 c 0,-1.77 1.434,-3.203 3.199,-3.203 L 0,-52.8 c 1.765,0 3.199,1.433 3.199,3.203 V -3.199 C 3.199,-1.433 1.765,0 0,0" /></g></g></g></g></svg>