<?xml version="1.0" encoding="UTF-8" standalone="no"?>
<svg
   xmlns:dc="http://purl.org/dc/elements/1.1/"
   xmlns:cc="http://creativecommons.org/ns#"
   xmlns:rdf="http://www.w3.org/1999/02/22-rdf-syntax-ns#"
   xmlns:svg="http://www.w3.org/2000/svg"
   xmlns="http://www.w3.org/2000/svg"
   viewBox="0 0 112 123.56627"
   height="123.56627"
   width="112"
   xml:space="preserve"
   id="svg2"
   version="1.1"><metadata
     id="metadata8"><rdf:RDF><cc:Work
         rdf:about=""><dc:format>image/svg+xml</dc:format><dc:type
           rdf:resource="http://purl.org/dc/dcmitype/StillImage" /></cc:Work></rdf:RDF></metadata><defs
     id="defs6"><clipPath
       id="clipPath18"
       clipPathUnits="userSpaceOnUse"><path
         id="path16"
         d="M 0,0 H 84 V 92.675 H 0 Z" /></clipPath></defs><g
     transform="matrix(1.3333333,0,0,-1.3333333,0,123.56627)"
     id="g10"><g
       id="g12"><g
         clip-path="url(#clipPath18)"
         id="g14"><g
           transform="translate(38.6075,5.7104)"
           id="g20"><path
             id="path22"
             style="fill:#231f20;fill-opacity:1;fill-rule:nonzero;stroke:none"
             d="m 0,0 c -2.85,-0.94 -5.923,0.608 -6.863,3.458 -0.94,2.85 0.608,5.923 3.458,6.863 2.85,0.94 5.923,-0.608 6.863,-3.458 C 4.398,4.013 2.85,0.941 0,0 m -5.108,15.482 c -5.7,-1.881 -8.796,-8.027 -6.916,-13.727 1.882,-5.7 8.027,-8.796 13.727,-6.915 5.7,1.88 8.796,8.026 6.915,13.726 -1.88,5.7 -8.026,8.796 -13.726,6.916" /></g><g
           transform="translate(54.4507,60.7411)"
           id="g24"><path
             id="path26"
             style="fill:#fed309;fill-opacity:1;fill-rule:nonzero;stroke:none"
             d="m 0,0 12.078,-6.645 -2.017,-3.673 -5.221,2.873 4.488,-13.602 -4.296,-1.418 -4.489,13.605 -2.486,-5.419 -3.806,1.752 z m -10.058,-33.53 c 0.24,-0.725 1.022,-1.12 1.747,-0.88 l 35.47,11.703 c 0.725,0.239 1.12,1.021 0.88,1.747 l -11.27,34.155 c -0.238,0.726 -1.021,1.12 -1.746,0.881 L -20.447,2.373 c -0.726,-0.239 -1.12,-1.022 -0.881,-1.747 z" /></g><g
           transform="translate(83.8362,29.0599)"
           id="g28"><path
             id="path30"
             style="fill:#231f20;fill-opacity:1;fill-rule:nonzero;stroke:none"
             d="M 0,0 C -0.478,1.451 -2.043,2.239 -3.494,1.76 L -36.688,-9.192 c 1.178,-1.337 2.112,-2.927 2.705,-4.724 0.021,-0.064 0.033,-0.128 0.053,-0.193 L -1.76,-3.495 C -0.309,-3.016 0.479,-1.451 0,0" /></g><g
           transform="translate(40.3622,24.0464)"
           id="g32"><path
             id="path34"
             style="fill:#231f20;fill-opacity:1;fill-rule:nonzero;stroke:none"
             d="m 0,0 -20.26,61.403 c -1.781,5.398 -7.622,8.342 -13.021,6.561 -5.4,-1.782 -8.342,-7.623 -6.561,-13.022 0.479,-1.451 2.043,-2.239 3.494,-1.76 1.451,0.479 2.239,2.043 1.76,3.494 -0.825,2.502 0.539,5.207 3.04,6.033 2.502,0.825 5.208,-0.538 6.033,-3.039 L -5.901,0.223 C -3.896,0.59 -1.888,0.499 0,0" /></g></g></g></g></svg>