<?xml version="1.0" encoding="UTF-8" standalone="no"?>
<svg
   xmlns:dc="http://purl.org/dc/elements/1.1/"
   xmlns:cc="http://creativecommons.org/ns#"
   xmlns:rdf="http://www.w3.org/1999/02/22-rdf-syntax-ns#"
   xmlns:svg="http://www.w3.org/2000/svg"
   xmlns="http://www.w3.org/2000/svg"
   viewBox="0 0 153.18533 133.80533"
   height="133.80533"
   width="153.18533"
   xml:space="preserve"
   id="svg2"
   version="1.1"><metadata
     id="metadata8"><rdf:RDF><cc:Work
         rdf:about=""><dc:format>image/svg+xml</dc:format><dc:type
           rdf:resource="http://purl.org/dc/dcmitype/StillImage" /></cc:Work></rdf:RDF></metadata><defs
     id="defs6"><clipPath
       id="clipPath18"
       clipPathUnits="userSpaceOnUse"><path
         id="path16"
         d="M 0,100.354 H 114.889 V 0 H 0 Z" /></clipPath><clipPath
       id="clipPath30"
       clipPathUnits="userSpaceOnUse"><path
         id="path28"
         d="M 0,0 H 114.889 V 100.355 H 0 Z" /></clipPath></defs><g
     transform="matrix(1.3333333,0,0,-1.3333333,0,133.80533)"
     id="g10"><g
       id="g12"><g
         clip-path="url(#clipPath18)"
         id="g14"><g
           transform="translate(85.9303,72.3254)"
           id="g20"><path
             id="path22"
             style="fill:#fed309;fill-opacity:1;fill-rule:nonzero;stroke:none"
             d="m 0,0 c -3.433,1.375 -4.424,2.208 -4.424,3.71 0,1.203 0.91,2.607 3.478,2.607 2.271,0 4.013,-0.895 4.029,-0.903 0.183,-0.098 0.389,-0.15 0.591,-0.15 0.498,0 0.937,0.3 1.119,0.767 L 5.417,7.625 C 5.634,8.206 5.305,8.713 4.885,8.893 3.486,9.503 0.754,9.973 0.726,9.979 0.681,9.985 0.528,10.018 0.528,10.197 L 0.52,12.511 c 0,0.697 -0.582,1.263 -1.296,1.263 h -1.119 c -0.713,0 -1.294,-0.566 -1.294,-1.263 l 0.002,-2.432 c 0,-0.187 -0.202,-0.267 -0.276,-0.285 -3.449,-0.822 -5.605,-3.348 -5.605,-6.535 0,-3.973 3.284,-5.769 6.83,-7.116 2.836,-1.113 3.991,-2.241 3.991,-3.898 0,-1.8 -1.637,-3.058 -3.983,-3.058 -2.004,0 -4.715,1.27 -4.742,1.283 -0.174,0.083 -0.357,0.123 -0.547,0.123 -0.515,0 -0.964,-0.311 -1.145,-0.794 l -0.595,-1.615 c -0.212,-0.602 0.113,-1.09 0.531,-1.307 1.666,-0.868 4.887,-1.377 5.031,-1.398 0.039,-0.005 0.236,-0.075 0.236,-0.253 v -2.422 c 0,-0.697 0.581,-1.265 1.296,-1.265 h 1.155 c 0.715,0 1.296,0.568 1.296,1.265 v 2.548 c 0,0.239 0.177,0.259 0.214,0.269 3.673,0.825 5.937,3.514 5.937,6.888 C 6.437,-4.023 4.51,-1.783 0,0" /></g></g></g><g
       id="g24"><g
         clip-path="url(#clipPath30)"
         id="g26"><g
           transform="translate(84.4857,46.6505)"
           id="g32"><path
             id="path34"
             style="fill:#fed309;fill-opacity:1;fill-rule:nonzero;stroke:none"
             d="m 0,0 c -12.887,0 -23.334,10.447 -23.334,23.332 0,12.886 10.447,23.333 23.334,23.333 12.886,0 23.331,-10.447 23.331,-23.333 C 23.331,10.447 12.886,0 0,0 m 0,53.704 c -16.774,0 -30.371,-13.599 -30.371,-30.372 0,-16.772 13.597,-30.371 30.371,-30.371 16.772,0 30.37,13.599 30.37,30.371 0,16.773 -13.598,30.372 -30.37,30.372" /></g><g
           transform="translate(108.6844,24.8943)"
           id="g36"><path
             id="path38"
             style="fill:#231f20;fill-opacity:1;fill-rule:nonzero;stroke:none"
             d="m 0,0 c -6.459,-3.565 -15.34,-6.861 -24.199,-8.25 -7.881,-1.236 -22.709,1.745 -22.709,5.266 0,1.333 13.004,-3.288 20.871,-1.189 6.032,1.609 5.175,7.252 1.894,7.997 -3.261,0.739 -22.372,7.74 -30.534,7.982 -3.846,0.114 -13.338,-1.337 -17.932,-2.087 -1.574,-0.256 -2.56,-0.227 -2.658,-1.732 -0.459,-6.999 -1.359,-21.312 -1.85,-28.789 -0.011,-0.156 0.209,-2.281 1.962,-0.787 1.919,1.636 4.609,3.45 7.099,2.886 3.906,-0.887 37.69,-7.076 42.35,-5.992 6.665,1.549 25.537,12.732 29.155,16.208 C 9.057,-3.097 4.698,2.592 0,0" /></g><g
           transform="translate(13.6745,5.621)"
           id="g40"><path
             id="path42"
             style="fill:#231f20;fill-opacity:1;fill-rule:nonzero;stroke:none"
             d="m 0,0 c -2.703,0 -4.894,2.191 -4.894,4.893 0,2.704 2.191,4.894 4.894,4.894 2.701,0 4.894,-2.19 4.894,-4.894 C 4.894,2.191 2.703,0 0,0 m 10.42,29.266 -17.699,0.873 c -1.367,0.066 -2.763,-0.963 -3.103,-2.287 l -3.216,-29.219 c -0.34,-1.325 0.501,-2.452 1.868,-2.506 l 19.614,0.002 c 1.368,-0.053 2.571,1.021 2.677,2.385 l 2.152,28.15 c 0.105,1.364 -0.927,2.534 -2.293,2.602" /></g></g></g></g></svg>